<svg xmlns="http://www.w3.org/2000/svg" width="900" height="1020" font-family="'Segoe UI', Arial, sans-serif">
  <defs>
    <linearGradient id="bg" x1="0" y1="0" x2="0" y2="1">
      <stop offset="0%" stop-color="#0d1117"/>
      <stop offset="100%" stop-color="#0a0f1e"/>
    </linearGradient>
    <linearGradient id="accent" x1="0" y1="0" x2="1" y2="0">
      <stop offset="0%" stop-color="#00cfff"/>
      <stop offset="100%" stop-color="#3b82f6"/>
    </linearGradient>
  </defs>

  <!-- Background -->
  <rect width="900" height="1020" fill="url(#bg)" rx="16"/>
  <rect x="0" y="0" width="900" height="4" fill="url(#accent)" rx="2"/>

  <!-- Header -->
  <text x="48" y="58" font-size="11" font-weight="700" fill="#00cfff" letter-spacing="4">HOSTING RECOMMENDATION</text>
  <text x="48" y="90" font-size="28" font-weight="800" fill="#ffffff">Hostinger Plan Analysis</text>
  <text x="48" y="116" font-size="13" fill="#4b6480">AI Content Studio  ·  500–1,000 Users</text>
  <rect x="48" y="134" width="804" height="1" fill="#1e2d40"/>

  <!-- WHY NOT SHARED -->
  <text x="48" y="168" font-size="10" font-weight="700" fill="#ef4444" letter-spacing="3">WHY SHARED HOSTING WON'T WORK</text>

  <rect x="48"  y="180" width="186" height="78" rx="10" fill="#1a0f0f" stroke="#ef444430" stroke-width="1"/>
  <text x="68"  y="202" font-size="12" font-weight="700" fill="#ef4444">Remotion + FFmpeg</text>
  <text x="68"  y="220" font-size="10" fill="#94a3b8">Spawn Chromium process</text>
  <text x="68"  y="236" font-size="10" fill="#94a3b8">ต้องการ RAM สูงมาก</text>
  <text x="68"  y="250" font-size="10" fill="#ef4444">ห้ามบน Shared Hosting</text>

  <rect x="246" y="180" width="186" height="78" rx="10" fill="#1a0f0f" stroke="#ef444430" stroke-width="1"/>
  <text x="266" y="202" font-size="12" font-weight="700" fill="#ef4444">Timeout 300s</text>
  <text x="266" y="220" font-size="10" fill="#94a3b8">maxDuration = 300s ใน code</text>
  <text x="266" y="236" font-size="10" fill="#94a3b8">Shared timeout แค่ ~30s</text>
  <text x="266" y="250" font-size="10" fill="#ef4444">Request จะ fail ทันที</text>

  <rect x="444" y="180" width="186" height="78" rx="10" fill="#1a0f0f" stroke="#ef444430" stroke-width="1"/>
  <text x="464" y="202" font-size="12" font-weight="700" fill="#ef4444">Video File Storage</text>
  <text x="464" y="220" font-size="10" fill="#94a3b8">renders/ + stocks/ folders</text>
  <text x="464" y="236" font-size="10" fill="#94a3b8">1 วิดีโอ = 50–200 MB</text>
  <text x="464" y="250" font-size="10" fill="#ef4444">500 users กิน disk TB+</text>

  <rect x="642" y="180" width="186" height="78" rx="10" fill="#1a0f0f" stroke="#ef444430" stroke-width="1"/>
  <text x="662" y="202" font-size="12" font-weight="700" fill="#ef4444">SQLite (current DB)</text>
  <text x="662" y="220" font-size="10" fill="#94a3b8">ไม่รองรับ concurrent</text>
  <text x="662" y="236" font-size="10" fill="#94a3b8">writes จาก 500 users</text>
  <text x="662" y="250" font-size="10" fill="#ef4444">ต้องเปลี่ยน PostgreSQL</text>

  <!-- VPS TABLE -->
  <text x="48" y="300" font-size="10" font-weight="700" fill="#00cfff" letter-spacing="3">VPS PACKAGE COMPARISON</text>

  <!-- Table header -->
  <rect x="48" y="312" width="804" height="34" rx="8" fill="#0f1f35"/>
  <text x="80"  y="333" font-size="10" font-weight="700" fill="#64748b">PACKAGE</text>
  <text x="240" y="333" font-size="10" font-weight="700" fill="#64748b">RAM</text>
  <text x="320" y="333" font-size="10" font-weight="700" fill="#64748b">vCPU</text>
  <text x="400" y="333" font-size="10" font-weight="700" fill="#64748b">STORAGE</text>
  <text x="510" y="333" font-size="10" font-weight="700" fill="#64748b">ราคา/เดือน</text>
  <text x="630" y="333" font-size="10" font-weight="700" fill="#64748b">เหมาะกับ</text>

  <!-- Row KVM 2 -->
  <rect x="48" y="346" width="804" height="42" fill="#0d1825"/>
  <rect x="48" y="346" width="3"   height="42" fill="#3b82f6"/>
  <text x="80"  y="362" font-size="13" font-weight="700" fill="#e2e8f0">KVM 2</text>
  <text x="80"  y="379" font-size="10" fill="#475569">Hostinger Cloud VPS</text>
  <text x="240" y="371" font-size="14" font-weight="800" fill="#60a5fa">8 GB</text>
  <text x="320" y="371" font-size="14" font-weight="800" fill="#60a5fa">4 Core</text>
  <text x="400" y="365" font-size="12" font-weight="700" fill="#e2e8f0">100 GB NVMe</text>
  <text x="510" y="371" font-size="15" font-weight="800" fill="#22d3ee">$12</text>
  <text x="630" y="364" font-size="11" fill="#94a3b8">Dev / Beta</text>
  <text x="630" y="379" font-size="10" fill="#475569">ไม่เกิน 50 concurrent</text>

  <!-- Row KVM 4 RECOMMENDED -->
  <rect x="48" y="388" width="804" height="52" fill="#0c1f10"/>
  <rect x="48" y="388" width="804" height="52" fill="#22c55e08"/>
  <rect x="48" y="388" width="3"   height="52" fill="#22c55e"/>
  <text x="80"  y="406" font-size="13" font-weight="700" fill="#86efac">KVM 4</text>
  <text x="80"  y="422" font-size="10" font-weight="700" fill="#4ade80">RECOMMENDED</text>
  <text x="80"  y="435" font-size="10" fill="#475569">Hostinger Cloud VPS</text>
  <text x="240" y="418" font-size="16" font-weight="800" fill="#22c55e">16 GB</text>
  <text x="320" y="418" font-size="16" font-weight="800" fill="#22c55e">6 Core</text>
  <text x="400" y="410" font-size="12" font-weight="700" fill="#e2e8f0">200 GB NVMe</text>
  <text x="510" y="418" font-size="17" font-weight="800" fill="#22c55e">$20</text>
  <text x="630" y="408" font-size="11" fill="#86efac">500 users production</text>
  <text x="630" y="424" font-size="10" fill="#4ade80">10–20 render พร้อมกัน</text>
  <text x="630" y="438" font-size="10" fill="#475569">รองรับได้สบาย</text>
  <rect x="746" y="395" width="94" height="20" rx="10" fill="#166534"/>
  <text x="793" y="409" font-size="10" font-weight="700" fill="#4ade80" text-anchor="middle">✓ แนะนำ</text>

  <!-- Row KVM 8 -->
  <rect x="48" y="440" width="804" height="42" fill="#0d1825"/>
  <rect x="48" y="440" width="3"   height="42" fill="#a855f7"/>
  <text x="80"  y="456" font-size="13" font-weight="700" fill="#e2e8f0">KVM 8</text>
  <text x="80"  y="473" font-size="10" fill="#475569">Hostinger Cloud VPS</text>
  <text x="240" y="465" font-size="14" font-weight="800" fill="#c084fc">32 GB</text>
  <text x="320" y="465" font-size="14" font-weight="800" fill="#c084fc">8 Core</text>
  <text x="400" y="459" font-size="12" font-weight="700" fill="#e2e8f0">400 GB NVMe</text>
  <text x="510" y="465" font-size="15" font-weight="800" fill="#a855f7">$38</text>
  <text x="630" y="458" font-size="11" fill="#94a3b8">1,000+ users</text>
  <text x="630" y="473" font-size="10" fill="#475569">High traffic / Scale up</text>

  <rect x="48" y="482" width="804" height="1" fill="#1e2d40"/>

  <!-- RENDER MATH -->
  <rect x="48"  y="500" width="390" height="134" rx="12" fill="#0f1825" stroke="#1e3a5f" stroke-width="1"/>
  <text x="68"  y="524" font-size="10" font-weight="700" fill="#00cfff" letter-spacing="3">RENDER RESOURCE MATH</text>
  <text x="68"  y="548" font-size="11" fill="#64748b">1 Remotion render =</text>
  <text x="240" y="548" font-size="11" font-weight="700" fill="#e2e8f0">1–2 GB RAM + 1 CPU core</text>
  <text x="68"  y="568" font-size="11" fill="#64748b">500 users, active 5% =</text>
  <text x="240" y="568" font-size="11" font-weight="700" fill="#e2e8f0">~25 คนพร้อมกัน</text>
  <text x="68"  y="588" font-size="11" fill="#64748b">Concurrent renders =</text>
  <text x="240" y="588" font-size="11" font-weight="700" fill="#fbbf24">จำกัด 4 ตัว (render queue)</text>
  <text x="68"  y="608" font-size="11" fill="#64748b">RAM ที่ใช้จริง =</text>
  <text x="240" y="608" font-size="11" font-weight="700" fill="#22c55e">~8–10 GB  ✓ พอดี KVM 4</text>
  <rect x="68" y="618" width="350" height="1" fill="#1e2d40"/>
  <text x="68"  y="630" font-size="10" fill="#475569">* ต้องใส่ BullMQ queue จำกัด concurrent ก่อน deploy</text>

  <!-- REQUIRED BEFORE DEPLOY -->
  <rect x="462" y="500" width="390" height="134" rx="12" fill="#0f1825" stroke="#1e3a5f" stroke-width="1"/>
  <text x="482" y="524" font-size="10" font-weight="700" fill="#f59e0b" letter-spacing="3">REQUIRED BEFORE DEPLOY</text>
  <text x="502" y="552" font-size="14" fill="#fbbf24">1</text>
  <text x="522" y="552" font-size="11" font-weight="600" fill="#e2e8f0">SQLite  →  PostgreSQL / MySQL</text>
  <text x="522" y="566" font-size="10" fill="#64748b">Hostinger VPS มี MySQL ฟรี, แค่ migrate schema</text>
  <text x="502" y="588" font-size="14" fill="#fbbf24">2</text>
  <text x="522" y="588" font-size="11" font-weight="600" fill="#e2e8f0">Video Storage  →  Cloudflare R2</text>
  <text x="522" y="602" font-size="10" fill="#64748b">$0.015/GB/เดือน  ·  ฟรี 10 GB แรก  ·  CDN ในตัว</text>
  <text x="502" y="624" font-size="14" fill="#fbbf24">3</text>
  <text x="522" y="624" font-size="11" font-weight="600" fill="#e2e8f0">Render Queue  →  BullMQ + Redis</text>
  <text x="522" y="638" font-size="10" fill="#64748b">ป้องกัน RAM overflow ตอน 10 คน render พร้อมกัน</text>

  <!-- DEPLOYMENT STACK -->
  <text x="48" y="674" font-size="10" font-weight="700" fill="#00cfff" letter-spacing="3">RECOMMENDED DEPLOYMENT STACK</text>

  <rect x="48"  y="686" width="190" height="68" rx="10" fill="#0f1825" stroke="#1e3a5f" stroke-width="1"/>
  <text x="68"  y="710" font-size="13" font-weight="700" fill="#e2e8f0">Hostinger KVM 4</text>
  <text x="68"  y="728" font-size="10" fill="#64748b">Next.js via PM2</text>
  <text x="68"  y="744" font-size="10" fill="#64748b">Ubuntu 22.04 LTS</text>

  <text x="245" y="723" font-size="16" fill="#334155">+</text>

  <rect x="262" y="686" width="190" height="68" rx="10" fill="#0f1825" stroke="#1e3a5f" stroke-width="1"/>
  <text x="282" y="710" font-size="13" font-weight="700" fill="#e2e8f0">PostgreSQL</text>
  <text x="282" y="728" font-size="10" fill="#64748b">แทน SQLite ปัจจุบัน</text>
  <text x="282" y="744" font-size="10" fill="#64748b">Prisma migrate</text>

  <text x="459" y="723" font-size="16" fill="#334155">+</text>

  <rect x="476" y="686" width="190" height="68" rx="10" fill="#0f1825" stroke="#1e3a5f" stroke-width="1"/>
  <text x="496" y="710" font-size="13" font-weight="700" fill="#e2e8f0">Cloudflare R2</text>
  <text x="496" y="728" font-size="10" fill="#64748b">Video file storage</text>
  <text x="496" y="744" font-size="10" fill="#64748b">CDN delivery</text>

  <text x="673" y="723" font-size="16" fill="#334155">+</text>

  <rect x="690" y="686" width="162" height="68" rx="10" fill="#0f1825" stroke="#1e3a5f" stroke-width="1"/>
  <text x="710" y="710" font-size="13" font-weight="700" fill="#e2e8f0">BullMQ + Redis</text>
  <text x="710" y="728" font-size="10" fill="#64748b">Render queue</text>
  <text x="710" y="744" font-size="10" fill="#64748b">Max 4 concurrent</text>

  <!-- COST SUMMARY -->
  <rect x="48" y="774" width="804" height="96" rx="12" fill="#0c1f10" stroke="#166534" stroke-width="1"/>
  <text x="68" y="798" font-size="10" font-weight="700" fill="#22c55e" letter-spacing="3">MONTHLY COST ESTIMATE  (500–1,000 USERS)</text>

  <text x="68"  y="824" font-size="12" fill="#94a3b8">Hostinger KVM 4</text>
  <text x="68"  y="840" font-size="10" fill="#64748b">VPS รัน Next.js + Redis + PostgreSQL</text>
  <text x="300" y="832" font-size="16" font-weight="800" fill="#22c55e">$20 / เดือน</text>

  <rect x="440" y="808" width="1" height="50" fill="#1e3a5f"/>

  <text x="460" y="820" font-size="11" fill="#94a3b8">+ Cloudflare R2</text>
  <text x="460" y="836" font-size="10" fill="#64748b">~100 GB video storage</text>
  <text x="640" y="828" font-size="13" font-weight="700" fill="#fbbf24">~$1.50 / เดือน</text>
  <text x="460" y="854" font-size="11" fill="#94a3b8">+ SSL Certificate</text>
  <text x="640" y="854" font-size="12" font-weight="700" fill="#94a3b8">ฟรี (Let's Encrypt)</text>

  <!-- TOTAL BAR -->
  <rect x="48" y="880" width="804" height="56" rx="12" fill="#0a1a08" stroke="#166534" stroke-width="1"/>
  <text x="68" y="915" font-size="14" font-weight="700" fill="#64748b">รวมค่าใช้จ่าย production-ready</text>
  <text x="600" y="915" font-size="24" font-weight="800" fill="#22c55e">≈ $22 / เดือน</text>

  <!-- Footer -->
  <text x="450" y="986" font-size="10" fill="#334155" text-anchor="middle">AI Content Studio · Intelligent Media Studio · Hostinger VPS Recommendation 2026</text>
</svg>
